<?xml version="1.0" encoding="UTF-8" standalone="no"?>
<!DOCTYPE svg PUBLIC "-//W3C//DTD SVG 1.1//EN" "http://www.w3.org/Graphics/SVG/1.1/DTD/svg11.dtd">
<svg width="100%" height="100%" viewBox="0 0 456 456" version="1.1" xmlns="http://www.w3.org/2000/svg" xmlns:xlink="http://www.w3.org/1999/xlink" xml:space="preserve" xmlns:serif="http://www.serif.com/" style="fill-rule:evenodd;clip-rule:evenodd;stroke-linejoin:round;stroke-miterlimit:2;">
    <g transform="matrix(0.332252,0,0,0.332252,132.32,142.943)">
        <g transform="matrix(1,0,0,1,0,-219.713)">
            <path d="M543.8,287.6C560.8,287.6 575.8,273.6 575.8,255.5C576.8,246.5 572.8,238.5 564.8,231.5L512,185L512,64C512,46.3 497.7,32 480,32L448,32C430.3,32 416,46.3 416,64L416,100.7L309.5,7C303.5,2 295.5,0 288.5,0C281.5,0 273.5,1 266.5,8L10,231.5C3,238.5 0,246.5 0,255.5C0,273.5 14,287.6 32,287.6L64,287.6L64,357.3C63.9,358.2 63.9,359.1 63.9,360.1L63.9,472C63.9,494.1 81.8,512 103.9,512L119.9,512C121.1,512 122.3,511.9 123.5,511.8C125,511.9 126.5,512 128,512L184,512C206.1,512 224,494.1 224,472L224,384C224,366.3 238.3,352 256,352L320,352C337.7,352 352,366.3 352,384L352,472C352,494.1 369.9,512 392,512L448.5,512C449.9,512 451.3,512 452.7,511.9C453.8,512 454.9,512 456,512L472,512C494.1,512 512,494.1 512,472L512,455.8C512.3,453.2 512.5,450.5 512.5,447.7L511.8,287.5L543.8,287.5L543.8,287.6Z" style="fill:white;fill-rule:nonzero;"/>
        </g>
        <g transform="matrix(3.00976,0,0,3.00976,-222.145,582.072)">
            <g transform="matrix(76.389,0,0,76.389,335.395,0)">
            </g>
            <text x="0px" y="0px" style="font-family:'SegoeUI-Semilight', 'Segoe UI', sans-serif;font-weight:350;font-size:76.389px;fill:white;">Mĳn Thuis</text>
        </g>
    </g>
</svg>
